# This file uses centimeters as units for non-parametric coordinates.

mtllib Branch.mtl
g default
v -0.628613 0.015658 -0.058437
v -0.628613 0.058437 -0.101216
v -0.628613 0.116874 -0.116874
v -0.628613 0.175311 -0.101216
v -0.628613 0.218089 -0.058437
v -0.628613 0.233747 0.000000
v -0.628613 0.218089 0.058437
v -0.628613 0.175311 0.101216
v -0.628613 0.116874 0.116874
v -0.628613 0.058437 0.101216
v -0.628613 0.015658 0.058437
v -0.628613 0.000000 0.000000
v 0.628613 0.015658 -0.058437
v 0.628613 0.058437 -0.101216
v 0.628613 0.116874 -0.116874
v 0.628613 0.175311 -0.101216
v 0.628613 0.218089 -0.058437
v 0.628613 0.233747 0.000000
v 0.628613 0.218089 0.058437
v 0.628613 0.175311 0.101216
v 0.628613 0.116874 0.116874
v 0.628613 0.058437 0.101216
v 0.628613 0.015658 0.058437
v 0.628613 0.000000 0.000000
v -0.628613 0.116874 0.000000
v 0.628613 0.116874 0.000000
vt 0.635316 0.078125
vt 0.578125 0.020934
vt 0.500000 0.000000
vt 0.421875 0.020934
vt 0.364684 0.078125
vt 0.343750 0.156250
vt 0.364684 0.234375
vt 0.421875 0.291566
vt 0.500000 0.312500
vt 0.578125 0.291566
vt 0.635316 0.234375
vt 0.656250 0.156250
vt 0.375000 0.312500
vt 0.395833 0.312500
vt 0.416667 0.312500
vt 0.437500 0.312500
vt 0.458333 0.312500
vt 0.479167 0.312500
vt 0.500000 0.312500
vt 0.520833 0.312500
vt 0.541667 0.312500
vt 0.562500 0.312500
vt 0.583333 0.312500
vt 0.604167 0.312500
vt 0.625000 0.312500
vt 0.375000 0.688440
vt 0.395833 0.688440
vt 0.416667 0.688440
vt 0.437500 0.688440
vt 0.458333 0.688440
vt 0.479167 0.688440
vt 0.500000 0.688440
vt 0.520833 0.688440
vt 0.541667 0.688440
vt 0.562500 0.688440
vt 0.583333 0.688440
vt 0.604167 0.688440
vt 0.625000 0.688440
vt 0.635316 0.765625
vt 0.578125 0.708434
vt 0.500000 0.687500
vt 0.421875 0.708434
vt 0.364684 0.765625
vt 0.343750 0.843750
vt 0.364684 0.921875
vt 0.421875 0.979066
vt 0.500000 1.000000
vt 0.578125 0.979066
vt 0.635316 0.921875
vt 0.656250 0.843750
vt 0.500000 0.150000
vt 0.500000 0.837500
vn -0.038705 -0.865377 -0.499625
vn -0.038705 -0.499625 -0.865376
vn 0.038705 -0.499625 -0.865376
vn 0.038705 -0.865377 -0.499625
vn -0.038705 0.000000 -0.999251
vn 0.038705 0.000000 -0.999251
vn -0.038705 0.499625 -0.865376
vn 0.038705 0.499625 -0.865376
vn -0.038705 0.865377 -0.499625
vn 0.038705 0.865377 -0.499625
vn -0.038705 0.999251 0.000000
vn 0.038705 0.999251 0.000000
vn -0.038705 0.865377 0.499625
vn 0.038705 0.865377 0.499625
vn -0.038705 0.499625 0.865376
vn 0.038705 0.499625 0.865376
vn -0.038705 0.000000 0.999251
vn 0.038705 0.000000 0.999251
vn -0.038705 -0.499625 0.865376
vn 0.038705 -0.499625 0.865376
vn -0.038705 -0.865377 0.499625
vn 0.038705 -0.865377 0.499625
vn -0.038705 -0.999251 0.000000
vn 0.038705 -0.999251 0.000000
vn -1.000000 0.000000 0.000000
vn 1.000000 0.000000 0.000000
s 1
g pCylinder16
usemtl initialShadingGroup
f 1/13/1 2/14/2 14/27/3 13/26/4
f 2/14/2 3/15/5 15/28/6 14/27/3
f 3/15/5 4/16/7 16/29/8 15/28/6
f 4/16/7 5/17/9 17/30/10 16/29/8
f 5/17/9 6/18/11 18/31/12 17/30/10
f 6/18/11 7/19/13 19/32/14 18/31/12
f 7/19/13 8/20/15 20/33/16 19/32/14
f 8/20/15 9/21/17 21/34/18 20/33/16
f 9/21/17 10/22/19 22/35/20 21/34/18
f 10/22/19 11/23/21 23/36/22 22/35/20
f 11/23/21 12/24/23 24/37/24 23/36/22
f 12/24/23 1/25/1 13/38/4 24/37/24
f 2/2/2 1/1/1 25/51/25
f 3/3/5 2/2/2 25/51/25
f 4/4/7 3/3/5 25/51/25
f 5/5/9 4/4/7 25/51/25
f 6/6/11 5/5/9 25/51/25
f 7/7/13 6/6/11 25/51/25
f 8/8/15 7/7/13 25/51/25
f 9/9/17 8/8/15 25/51/25
f 10/10/19 9/9/17 25/51/25
f 11/11/21 10/10/19 25/51/25
f 12/12/23 11/11/21 25/51/25
f 1/1/1 12/12/23 25/51/25
f 13/49/4 14/48/3 26/52/26
f 14/48/3 15/47/6 26/52/26
f 15/47/6 16/46/8 26/52/26
f 16/46/8 17/45/10 26/52/26
f 17/45/10 18/44/12 26/52/26
f 18/44/12 19/43/14 26/52/26
f 19/43/14 20/42/16 26/52/26
f 20/42/16 21/41/18 26/52/26
f 21/41/18 22/40/20 26/52/26
f 22/40/20 23/39/22 26/52/26
f 23/39/22 24/50/24 26/52/26
f 24/50/24 13/49/4 26/52/26
g default
v -0.628613 0.015658 -0.058437
v -0.628613 0.058437 -0.101216
v -0.628613 0.116874 -0.116874
v -0.628613 0.175311 -0.101216
v -0.628613 0.218089 -0.058437
v -0.628613 0.233747 0.000000
v -0.628613 0.218089 0.058437
v -0.628613 0.175311 0.101216
v -0.628613 0.116874 0.116874
v -0.628613 0.058437 0.101216
v -0.628613 0.015658 0.058437
v -0.628613 0.000000 0.000000
v 0.628613 0.015658 -0.058437
v 0.628613 0.058437 -0.101216
v 0.628613 0.116874 -0.116874
v 0.628613 0.175311 -0.101216
v 0.628613 0.218089 -0.058437
v 0.628613 0.233747 0.000000
v 0.628613 0.218089 0.058437
v 0.628613 0.175311 0.101216
v 0.628613 0.116874 0.116874
v 0.628613 0.058437 0.101216
v 0.628613 0.015658 0.058437
v 0.628613 0.000000 0.000000
v -0.628613 0.116874 0.000000
v 0.628613 0.116874 0.000000
vt 0.635316 0.078125
vt 0.578125 0.020934
vt 0.500000 0.000000
vt 0.421875 0.020934
vt 0.364684 0.078125
vt 0.343750 0.156250
vt 0.364684 0.234375
vt 0.421875 0.291566
vt 0.500000 0.312500
vt 0.578125 0.291566
vt 0.635316 0.234375
vt 0.656250 0.156250
vt 0.375000 0.312500
vt 0.395833 0.312500
vt 0.416667 0.312500
vt 0.437500 0.312500
vt 0.458333 0.312500
vt 0.479167 0.312500
vt 0.500000 0.312500
vt 0.520833 0.312500
vt 0.541667 0.312500
vt 0.562500 0.312500
vt 0.583333 0.312500
vt 0.604167 0.312500
vt 0.625000 0.312500
vt 0.375000 0.688440
vt 0.395833 0.688440
vt 0.416667 0.688440
vt 0.437500 0.688440
vt 0.458333 0.688440
vt 0.479167 0.688440
vt 0.500000 0.688440
vt 0.520833 0.688440
vt 0.541667 0.688440
vt 0.562500 0.688440
vt 0.583333 0.688440
vt 0.604167 0.688440
vt 0.625000 0.688440
vt 0.635316 0.765625
vt 0.578125 0.708434
vt 0.500000 0.687500
vt 0.421875 0.708434
vt 0.364684 0.765625
vt 0.343750 0.843750
vt 0.364684 0.921875
vt 0.421875 0.979066
vt 0.500000 1.000000
vt 0.578125 0.979066
vt 0.635316 0.921875
vt 0.656250 0.843750
vt 0.500000 0.150000
vt 0.500000 0.837500
vn -0.038705 -0.865377 -0.499625
vn -0.038705 -0.499625 -0.865376
vn 0.038705 -0.499625 -0.865376
vn 0.038705 -0.865377 -0.499625
vn -0.038705 0.000000 -0.999251
vn 0.038705 0.000000 -0.999251
vn -0.038705 0.499625 -0.865376
vn 0.038705 0.499625 -0.865376
vn -0.038705 0.865377 -0.499625
vn 0.038705 0.865377 -0.499625
vn -0.038705 0.999251 0.000000
vn 0.038705 0.999251 0.000000
vn -0.038705 0.865377 0.499625
vn 0.038705 0.865377 0.499625
vn -0.038705 0.499625 0.865376
vn 0.038705 0.499625 0.865376
vn -0.038705 0.000000 0.999251
vn 0.038705 0.000000 0.999251
vn -0.038705 -0.499625 0.865376
vn 0.038705 -0.499625 0.865376
vn -0.038705 -0.865377 0.499625
vn 0.038705 -0.865377 0.499625
vn -0.038705 -0.999251 0.000000
vn 0.038705 -0.999251 0.000000
vn -1.000000 0.000000 0.000000
vn 1.000000 0.000000 0.000000
s 1
g pCylinder16
f 27/65/27 28/66/28 40/79/29 39/78/30
f 28/66/28 29/67/31 41/80/32 40/79/29
f 29/67/31 30/68/33 42/81/34 41/80/32
f 30/68/33 31/69/35 43/82/36 42/81/34
f 31/69/35 32/70/37 44/83/38 43/82/36
f 32/70/37 33/71/39 45/84/40 44/83/38
f 33/71/39 34/72/41 46/85/42 45/84/40
f 34/72/41 35/73/43 47/86/44 46/85/42
f 35/73/43 36/74/45 48/87/46 47/86/44
f 36/74/45 37/75/47 49/88/48 48/87/46
f 37/75/47 38/76/49 50/89/50 49/88/48
f 38/76/49 27/77/27 39/90/30 50/89/50
f 28/54/28 27/53/27 51/103/51
f 29/55/31 28/54/28 51/103/51
f 30/56/33 29/55/31 51/103/51
f 31/57/35 30/56/33 51/103/51
f 32/58/37 31/57/35 51/103/51
f 33/59/39 32/58/37 51/103/51
f 34/60/41 33/59/39 51/103/51
f 35/61/43 34/60/41 51/103/51
f 36/62/45 35/61/43 51/103/51
f 37/63/47 36/62/45 51/103/51
f 38/64/49 37/63/47 51/103/51
f 27/53/27 38/64/49 51/103/51
f 39/101/30 40/100/29 52/104/52
f 40/100/29 41/99/32 52/104/52
f 41/99/32 42/98/34 52/104/52
f 42/98/34 43/97/36 52/104/52
f 43/97/36 44/96/38 52/104/52
f 44/96/38 45/95/40 52/104/52
f 45/95/40 46/94/42 52/104/52
f 46/94/42 47/93/44 52/104/52
f 47/93/44 48/92/46 52/104/52
f 48/92/46 49/91/48 52/104/52
f 49/91/48 50/102/50 52/104/52
f 50/102/50 39/101/30 52/104/52
